# Blender 4.1.0
# www.blender.org
mtllib beam.mtl
o Cube
v 0.228614 0.228614 -10.738972
v 0.234088 0.332714 -10.640668
v 0.332714 0.234088 -10.640668
v 0.234088 -0.332714 -10.640668
v 0.228614 -0.228614 -10.738972
v 0.332714 -0.234088 -10.640668
v 0.994365 0.895739 0.901696
v 0.895739 0.994365 0.901696
v 0.901535 0.901535 1.000000
v 0.994365 -0.895739 0.901696
v 0.901535 -0.901535 1.000000
v 0.895739 -0.994365 0.901696
v -0.228614 0.228614 -10.738972
v -0.332714 0.234088 -10.640668
v -0.234088 0.332714 -10.640668
v -0.332714 -0.234088 -10.640668
v -0.228614 -0.228614 -10.738972
v -0.234088 -0.332714 -10.640668
v -0.994365 0.895739 0.901696
v -0.901535 0.901535 1.000000
v -0.895739 0.994365 0.901696
v -0.895739 -0.994365 0.901696
v -0.901535 -0.901535 1.000000
v -0.994365 -0.895739 0.901696
vn 0.3262 0.3262 -0.8872
vn 0.3329 0.8582 -0.3908
vn 0.8582 0.3329 -0.3908
vn 0.3329 -0.8582 -0.3908
vn 0.3262 -0.3262 -0.8872
vn 0.8582 -0.3329 -0.3908
vn 0.8910 0.3484 0.2911
vn 0.3484 0.8910 0.2911
vn 0.3577 0.3577 0.8626
vn 0.8910 -0.3484 0.2911
vn 0.3577 -0.3577 0.8626
vn 0.3484 -0.8910 0.2911
vn -0.3262 0.3262 -0.8872
vn -0.8582 0.3329 -0.3908
vn -0.3329 0.8582 -0.3908
vn -0.8582 -0.3329 -0.3908
vn -0.3262 -0.3262 -0.8872
vn -0.3329 -0.8582 -0.3908
vn -0.8910 0.3484 0.2911
vn -0.3577 0.3577 0.8626
vn -0.3484 0.8910 0.2911
vn -0.3484 -0.8910 0.2911
vn -0.3577 -0.3577 0.8626
vn -0.8910 -0.3484 0.2911
vt 0.161286 0.502094
vt 0.338714 0.502093
vt 0.362279 0.747906
vt 0.137721 0.747907
vt 0.387721 0.002094
vt 0.612279 0.002094
vt 0.588714 0.247906
vt 0.411286 0.247906
vt 0.387308 0.762308
vt 0.612692 0.762308
vt 0.612692 0.987692
vt 0.387308 0.987692
vt 0.661286 0.502094
vt 0.838714 0.502093
vt 0.862279 0.747906
vt 0.637721 0.747907
vt 0.411286 0.502094
vt 0.588714 0.502093
vt 0.612279 0.747906
vt 0.387721 0.747907
vt 0.587370 0.462370
vt 0.625000 0.464462
vt 0.589462 0.500000
vt 0.337370 0.500000
vt 0.375000 0.501974
vt 0.611967 0.750704
vt 0.624296 0.763033
vt 0.375000 0.747787
vt 0.362696 0.749880
vt 0.587370 0.250000
vt 0.625000 0.248026
vt 0.125000 0.501974
vt 0.162630 0.500000
vt 0.612696 0.000120
vt 0.625000 0.002213
vt 0.137304 0.749880
vt 0.125000 0.747787
vt 0.412630 0.462370
vt 0.387308 0.000000
vt 0.612692 0.000000
vt 0.587370 0.287630
vt 0.412630 0.287630
vt 0.625000 0.763033
vt 0.625000 0.986967
vt 0.362692 0.750000
vt 0.137308 0.750000
vt 0.625000 0.285538
s 1
usemtl Material
f 18/1/18 4/2/4 12/3/12 22/4/22
f 24/5/24 19/6/19 14/7/14 16/8/16
f 11/9/11 9/10/9 20/11/20 23/12/23
f 2/13/2 15/14/15 21/15/21 8/16/8
f 6/17/6 3/18/3 7/19/7 10/20/10
f 1/21/1 2/22/2 3/23/3
f 4/2/4 5/24/5 6/25/6
f 7/26/7 8/27/8 9/10/9
f 10/28/10 11/29/11 12/3/12
f 13/30/13 14/7/14 15/31/15
f 16/32/16 17/33/17 18/1/18
f 19/6/19 20/34/20 21/35/21
f 22/4/22 23/36/23 24/37/24
f 18/1/18 22/4/22 24/37/24 16/32/16
f 4/2/4 18/1/18 17/33/17 5/24/5
f 3/18/3 6/17/6 5/38/5 1/21/1
f 23/39/23 20/40/20 19/6/19 24/5/24
f 9/10/9 11/9/11 10/20/10 7/19/7
f 13/41/13 17/42/17 16/8/16 14/7/14
f 8/43/8 21/44/21 20/11/20 9/10/9
f 2/13/2 8/16/8 7/19/7 3/18/3
f 22/4/22 12/3/12 11/45/11 23/46/23
f 21/35/21 15/31/15 14/7/14 19/6/19
f 15/47/15 2/22/2 1/21/1 13/41/13
f 12/3/12 4/2/4 6/17/6 10/20/10
f 17/42/17 13/41/13 1/21/1 5/38/5
